<?xml version="1.0" standalone="no"?>
<!DOCTYPE svg PUBLIC "-//W3C//DTD SVG 20010904//EN"
 "http://www.w3.org/TR/2001/REC-SVG-20010904/DTD/svg10.dtd">
<svg version="1.0" xmlns="http://www.w3.org/2000/svg"
 width="498.000000pt" height="501.000000pt" viewBox="0 0 498.000000 501.000000"
 preserveAspectRatio="xMidYMid meet">

<g transform="translate(0.000000,501.000000) scale(0.100000,-0.100000)"
fill="#000000" stroke="none">
<path d="M2320 4786 c0 -96 16 -116 89 -116 70 0 91 28 91 122 0 66 -1 69 -22
66 -21 -3 -23 -9 -26 -75 -3 -68 -5 -73 -27 -79 -37 -9 -55 2 -56 33 -1 15 -2
48 -3 73 -1 39 -4 45 -23 48 -22 3 -23 0 -23 -72z"/>
<path d="M2647 4853 c-4 -3 -7 -46 -7 -95 l0 -88 81 0 c60 0 80 3 77 13 -3 7
-26 13 -57 15 -50 3 -52 4 -49 30 3 23 8 27 38 28 60 2 65 3 55 13 -6 5 -28
11 -50 13 -32 2 -40 7 -40 23 0 17 8 20 48 23 33 2 47 7 47 18 0 11 -15 14
-68 14 -38 0 -72 -3 -75 -7z"/>
<path d="M2540 4690 c0 -15 7 -20 25 -20 18 0 25 5 25 20 0 15 -7 20 -25 20
-18 0 -25 -5 -25 -20z"/>
<path d="M649 4532 c-1 -4 -3 -635 -5 -1402 -1 -767 -7 -1547 -11 -1733 -4
-187 -6 -343 -3 -347 3 -5 208 -108 455 -230 413 -204 1411 -660 1444 -660 18
0 652 345 1016 553 618 354 798 457 802 460 2 2 -1 190 -7 418 -5 228 -12 515
-14 639 -3 124 -13 691 -22 1260 -9 569 -19 1038 -23 1042 -3 4 -391 3 -861
-2 -792 -8 -1201 -7 -2337 5 -238 2 -434 1 -434 -3z m3535 -259 c4 -87 9 -441
11 -788 3 -346 7 -736 10 -865 13 -583 17 -1000 10 -1000 -4 0 -38 24 -74 53
-91 74 -475 376 -536 423 -27 20 -56 44 -64 51 -11 12 -74 62 -205 163 -17 14
-74 59 -125 100 -52 41 -106 84 -120 95 -14 11 -80 62 -146 114 -66 52 -125
98 -130 102 -6 5 -108 -87 -250 -226 -132 -129 -244 -235 -249 -235 -9 0 -233
129 -278 161 -15 11 -29 19 -32 19 -2 0 -87 50 -188 112 -101 61 -202 122
-226 136 l-42 24 -75 -51 c-42 -28 -77 -51 -79 -51 -2 0 -30 -18 -62 -41 -33
-22 -84 -56 -114 -76 -30 -20 -148 -98 -262 -174 -157 -105 -207 -133 -210
-120 -1 9 -2 161 0 337 l3 322 52 -20 c28 -11 69 -35 89 -55 35 -34 40 -36
120 -39 46 -1 105 -9 132 -18 90 -29 172 -17 291 44 50 26 79 25 117 -1 45
-33 99 -41 192 -29 98 12 180 32 248 62 85 36 100 118 31 178 -59 52 -97 63
-218 63 -120 0 -160 -10 -248 -64 -62 -38 -94 -35 -217 21 -109 49 -204 70
-301 66 -94 -4 -153 -29 -231 -97 l-58 -50 0 750 0 751 1138 3 c625 1 1396 3
1713 5 l576 2 7 -157z m46 -2996 c0 -30 -5 -36 -62 -68 -35 -20 -155 -89 -268
-154 -113 -65 -234 -134 -270 -155 -36 -20 -144 -82 -240 -137 -96 -55 -204
-116 -240 -135 -97 -52 -487 -266 -553 -304 -32 -19 -65 -34 -73 -34 -7 0 -60
21 -116 46 -57 26 -268 120 -471 210 -202 90 -556 259 -787 374 -415 207 -420
210 -420 240 0 17 6 32 13 35 6 2 170 8 362 14 442 14 615 20 785 26 259 10
1338 45 1720 55 212 6 394 12 405 14 11 2 64 4 118 5 l97 1 0 -33z"/>
<path d="M950 3639 c-44 -18 -87 -57 -115 -106 -52 -88 -35 -224 37 -289 51
-47 91 -64 154 -64 84 0 140 22 203 80 64 60 105 66 161 25 59 -44 132 -65
223 -65 96 0 170 17 276 64 187 82 265 147 218 181 -23 17 -98 9 -153 -15
l-41 -17 -17 32 c-30 54 -107 126 -163 152 -94 43 -211 19 -346 -72 -37 -25
-70 -45 -73 -45 -3 0 -29 21 -58 46 -97 88 -222 126 -306 93z"/>
<path d="M3319 3071 c-108 -52 -102 -191 11 -249 39 -20 54 -23 109 -17 35 3
78 12 96 19 30 13 37 12 84 -11 42 -21 67 -26 134 -27 129 -1 167 32 167 143
0 91 -61 140 -157 127 -40 -5 -103 -38 -111 -58 -7 -17 -44 -7 -94 26 -61 38
-80 45 -153 55 -40 6 -62 3 -86 -8z"/>
<path d="M2315 3052 c-22 -10 -55 -35 -73 -56 -27 -31 -32 -44 -32 -89 0 -105
57 -157 192 -176 132 -18 318 22 383 84 29 26 35 40 35 72 0 26 -6 46 -17 54
-14 12 -67 16 -115 7 -9 -2 -26 11 -40 31 -40 58 -99 84 -203 88 -73 3 -98 0
-130 -15z"/>
<path d="M4475 4261 c-3 -5 -2 -48 1 -95 6 -74 10 -86 25 -86 13 0 19 9 21 38
3 36 4 37 43 37 39 0 40 -1 43 -37 3 -30 7 -38 23 -38 17 0 19 8 19 95 0 87
-2 95 -19 95 -15 0 -21 -8 -23 -32 -2 -28 -8 -34 -33 -39 -44 -8 -55 -1 -55
37 0 27 -4 34 -19 34 -11 0 -22 -4 -26 -9z"/>
<path d="M4495 3955 c-19 -18 -25 -35 -25 -68 0 -61 23 -88 82 -94 42 -5 50
-3 78 25 40 40 42 101 5 137 -34 35 -106 35 -140 0z m106 -21 c7 -9 13 -31 13
-49 0 -40 -19 -65 -50 -65 -26 0 -54 34 -54 65 0 52 61 85 91 49z"/>
<path d="M282 3748 c2 -75 6 -93 18 -93 11 0 16 13 18 48 4 59 18 60 57 2 28
-41 58 -61 77 -49 4 3 8 45 8 95 0 88 0 89 -25 89 -23 0 -25 -3 -25 -50 0 -64
-15 -64 -55 -2 -19 30 -38 48 -53 50 -22 3 -23 2 -20 -90z"/>
<path d="M4482 3598 c3 -85 5 -93 23 -93 16 0 21 8 25 38 3 21 8 38 13 37 4 0
11 0 15 0 5 0 17 -16 28 -35 14 -27 25 -35 47 -35 26 0 27 2 16 23 -6 12 -18
29 -25 38 -12 14 -11 18 6 34 25 23 26 61 1 75 -11 5 -49 10 -86 10 l-66 0 3
-92z m96 66 c37 -10 26 -48 -15 -52 -29 -3 -33 0 -33 21 0 36 8 41 48 31z"/>
<path d="M280 3367 c0 -86 13 -105 77 -114 32 -4 45 0 67 19 25 21 29 33 34
96 l5 72 -27 0 c-25 0 -26 -2 -26 -64 0 -65 -14 -96 -45 -96 -31 0 -45 31 -45
96 0 57 -2 64 -20 64 -18 0 -20 -7 -20 -73z"/>
<path d="M4547 3374 c-4 -4 -7 -47 -7 -96 0 -88 0 -88 25 -88 l26 0 -3 92 c-2
74 -6 93 -18 96 -9 1 -19 0 -23 -4z"/>
<path d="M280 2951 l0 -88 46 -7 c73 -10 104 -7 104 8 0 8 -19 16 -52 22 -43
7 -53 13 -53 29 0 17 8 20 48 23 33 2 47 7 47 18 0 10 -12 14 -44 14 -80 0
-73 40 7 42 33 0 47 5 47 14 0 11 -18 14 -75 14 l-75 0 0 -89z"/>
<path d="M4487 3034 c-14 -14 6 -24 49 -24 25 0 44 -4 42 -9 -1 -5 -24 -32
-50 -59 -25 -27 -48 -57 -50 -68 -3 -17 5 -19 85 -22 73 -2 87 0 87 13 0 11
-12 15 -49 15 -28 0 -52 4 -56 9 -3 6 19 36 49 68 31 32 56 64 56 71 0 8 -22
12 -78 12 -43 0 -82 -3 -85 -6z"/>
<path d="M4515 2738 c-33 -19 -44 -41 -45 -84 0 -27 7 -50 21 -68 18 -22 28
-26 74 -26 46 0 56 4 74 26 13 17 21 41 21 66 0 74 -81 122 -145 86z m80 -32
c18 -13 23 -55 10 -96 -9 -28 -70 -28 -85 -1 -16 31 -12 69 10 91 23 23 39 25
65 6z"/>
<path d="M294 2553 c31 -82 35 -88 63 -91 29 -3 31 -1 61 80 18 46 32 87 32
92 0 4 -10 6 -22 4 -17 -2 -25 -15 -38 -63 -9 -34 -22 -60 -29 -60 -8 0 -22
28 -33 63 -16 53 -22 62 -42 62 l-24 0 32 -87z"/>
<path d="M4476 2383 c-2 -10 -3 -43 -1 -73 2 -30 4 -65 4 -77 1 -16 7 -23 21
-23 17 0 20 7 20 50 0 28 4 50 10 50 5 0 25 -22 42 -50 24 -35 40 -50 56 -50
22 0 23 2 20 93 -2 74 -6 92 -18 92 -11 0 -16 -13 -18 -47 -4 -57 -23 -64 -47
-17 -32 61 -78 88 -89 52z"/>
<path d="M324 2240 c-57 -23 -73 -112 -29 -155 19 -20 34 -25 74 -25 42 0 53
4 70 26 29 36 28 95 -1 128 -25 28 -81 41 -114 26z m76 -40 c22 -22 25 -46 11
-83 -26 -68 -112 -22 -95 51 12 51 50 66 84 32z"/>
<path d="M4475 2020 c-11 -17 5 -30 36 -30 l29 0 0 -75 c0 -73 1 -75 25 -75
24 0 25 2 25 75 l0 75 31 0 c24 0 30 4 27 18 -3 14 -16 17 -85 20 -49 2 -84
-1 -88 -8z"/>
<path d="M4492 1618 l3 -93 75 0 c60 0 75 3 75 15 0 11 -12 15 -50 15 -47 0
-50 2 -53 27 -3 26 -1 27 45 30 57 4 56 23 -2 24 -33 0 -41 4 -43 22 -3 20 1
22 47 22 39 0 51 4 51 15 0 12 -15 15 -75 15 l-76 0 3 -92z"/>
</g>
</svg>
